# xmcd
#
# Track frame offsets:
#	150
#	52657
#	86635
#	103330
#	118197
#	135502
#	150570
#	168690
#	221242
#	238960
#	267025
#	286022
#	308380
#	333935
#
# Disc length: 4718 seconds
#
# Revision: 1
# Processed by: cddbd v1.4PL0 Copyright (c) Steve Scherf et al.
# Submitted via: audiograbber 1.80
#
DISCID=c1126c0e
DTITLE=Jean Michel Jarre - Zoolook/Oxygene 7-13
DYEAR=1900
DGENRE=
TTITLE0=Ethnicolor
TTITLE1=Diva
TTITLE2=Zoolookologie (remix)
TTITLE3=Woolloomoolo
TTITLE4=Zoolook (remix)
TTITLE5=Blah Blah Cafe
TTITLE6=Ethnicolor II
TTITLE7=Oxygene 7
TTITLE8=Oxygene 8
TTITLE9=Oxygene 9
TTITLE10=Oxygene 10
TTITLE11=Oxygene 11
TTITLE12=Oxygene 12
TTITLE13=Oxygene 13
EXTD=
EXTT0=
EXTT1=
EXTT2=
EXTT3=
EXTT4=
EXTT5=
EXTT6=
EXTT7=
EXTT8=
EXTT9=
EXTT10=
EXTT11=
EXTT12=
EXTT13=
PLAYORDER=
